<svg width="16" height="18" viewBox="0 0 16 18" fill="none" xmlns="http://www.w3.org/2000/svg">
<path d="M4.66667 10.6666C4.43056 10.6666 4.2325 10.5866 4.0725 10.4266C3.9125 10.2666 3.83278 10.0688 3.83333 9.83329C3.83333 9.59718 3.91333 9.39913 4.07333 9.23913C4.23334 9.07913 4.43111 8.9994 4.66667 8.99996C4.90278 8.99996 5.10083 9.07996 5.26084 9.23996C5.42084 9.39996 5.50056 9.59774 5.5 9.83329C5.5 10.0694 5.42 10.2675 5.26 10.4275C5.1 10.5875 4.90222 10.6672 4.66667 10.6666ZM8 10.6666C7.76389 10.6666 7.56583 10.5866 7.40583 10.4266C7.24583 10.2666 7.16611 10.0688 7.16667 9.83329C7.16667 9.59718 7.24667 9.39913 7.40667 9.23913C7.56667 9.07913 7.76445 8.9994 8 8.99996C8.23611 8.99996 8.43417 9.07996 8.59417 9.23996C8.75417 9.39996 8.83389 9.59774 8.83333 9.83329C8.83333 10.0694 8.75333 10.2675 8.59333 10.4275C8.43333 10.5875 8.23556 10.6672 8 10.6666ZM11.3333 10.6666C11.0972 10.6666 10.8992 10.5866 10.7392 10.4266C10.5792 10.2666 10.4994 10.0688 10.5 9.83329C10.5 9.59718 10.58 9.39913 10.74 9.23913C10.9 9.07913 11.0978 8.9994 11.3333 8.99996C11.5694 8.99996 11.7675 9.07996 11.9275 9.23996C12.0875 9.39996 12.1672 9.59774 12.1667 9.83329C12.1667 10.0694 12.0867 10.2675 11.9267 10.4275C11.7667 10.5875 11.5689 10.6672 11.3333 10.6666ZM2.16667 17.3333C1.70833 17.3333 1.31583 17.17 0.989168 16.8433C0.662501 16.5166 0.499446 16.1244 0.500001 15.6666V3.99996C0.500001 3.54163 0.663335 3.14913 0.990001 2.82246C1.31667 2.49579 1.70889 2.33274 2.16667 2.33329H3V0.666626H4.66667V2.33329H11.3333V0.666626H13V2.33329H13.8333C14.2917 2.33329 14.6842 2.49663 15.0108 2.82329C15.3375 3.14996 15.5006 3.54218 15.5 3.99996V15.6666C15.5 16.125 15.3367 16.5175 15.01 16.8441C14.6833 17.1708 14.2911 17.3338 13.8333 17.3333H2.16667ZM2.16667 15.6666H13.8333V7.33329H2.16667V15.6666ZM2.16667 5.66663H13.8333V3.99996H2.16667V5.66663Z" fill="#181C17" fill-opacity="0.72"/>
</svg>
