<svg width="22" height="18" viewBox="0 0 22 18" fill="none" xmlns="http://www.w3.org/2000/svg">
<path d="M21.2119 2.65599C20.4488 2.99359 19.6395 3.21536 18.8109 3.31399C19.6839 2.79112 20.3372 1.96873 20.6489 0.999988C19.8289 1.48799 18.9299 1.82999 17.9939 2.01499C17.3645 1.34157 16.5302 0.894951 15.6208 0.744572C14.7114 0.594194 13.7778 0.748479 12.9651 1.18344C12.1525 1.6184 11.5063 2.30967 11.127 3.14978C10.7477 3.98989 10.6566 4.93177 10.8679 5.82899C9.20482 5.74578 7.57785 5.31371 6.09262 4.56085C4.60739 3.80799 3.29712 2.75116 2.24688 1.45899C1.87517 2.09744 1.67984 2.82321 1.68088 3.56199C1.68088 5.01199 2.41988 6.29299 3.54088 7.04299C2.8769 7.02205 2.22753 6.84273 1.64688 6.51999V6.57099C1.64685 7.53686 1.98091 8.47301 2.59241 9.22066C3.20391 9.96831 4.05519 10.4814 5.00188 10.673C4.38552 10.8402 3.73917 10.8648 3.11188 10.745C3.3788 11.5764 3.89909 12.3035 4.59988 12.8244C5.30066 13.3453 6.14684 13.634 7.01988 13.65C6.15224 14.3314 5.15877 14.8352 4.09629 15.1324C3.03381 15.4295 1.92317 15.5144 0.827881 15.382C2.7396 16.6114 4.96499 17.2641 7.23788 17.262C14.9319 17.262 19.1379 10.889 19.1379 5.36199C19.1379 5.18199 19.1339 4.99999 19.1259 4.82099C19.9443 4.22935 20.6507 3.49555 21.2119 2.65599Z" fill="#138601"/>
</svg>
